<?xml version="1.0" standalone="no"?>
<!DOCTYPE svg PUBLIC "-//W3C//DTD SVG 20010904//EN"
 "http://www.w3.org/TR/2001/REC-SVG-20010904/DTD/svg10.dtd">
<svg version="1.0" xmlns="http://www.w3.org/2000/svg"
 width="260.000000pt" height="260.000000pt" viewBox="0 0 260.000000 260.000000"
 preserveAspectRatio="xMidYMid meet">
<metadata>
Created by potrace 1.11, written by Peter Selinger 2001-2013
</metadata>
<g transform="translate(0.000000,260.000000) scale(0.100000,-0.100000)"
fill="#000000" stroke="none">
<path d="M1273 2576 c-73 -61 -100 -245 -59 -403 l18 -72 -57 -73 c-31 -40
-75 -111 -98 -157 -39 -79 -42 -90 -42 -170 0 -73 4 -94 27 -141 31 -64 96
-131 153 -159 l40 -20 -62 -1 -63 0 -11 44 c-51 204 -367 214 -408 12 -4 -17
-10 -30 -14 -28 -4 1 -38 2 -75 2 -64 0 -70 2 -80 25 -33 71 -144 159 -248
196 -106 37 -272 22 -290 -25 -3 -9 6 -36 20 -60 48 -82 180 -144 323 -154
l83 -5 47 -81 c52 -91 157 -202 218 -231 25 -12 69 -21 116 -23 67 -4 85 -1
139 24 39 17 76 44 102 73 23 25 39 39 36 31 -3 -8 -13 -37 -23 -65 l-18 -50
-51 -1 c-136 -2 -235 -141 -204 -287 10 -51 55 -111 88 -122 18 -6 18 -9 -8
-79 l-26 -73 -55 -19 c-107 -36 -221 -144 -270 -254 -11 -25 -25 -76 -32 -113
-19 -114 7 -139 99 -97 83 38 175 159 222 293 l18 52 82 22 c180 49 300 134
341 242 31 82 24 216 -13 284 -15 26 -24 47 -20 47 4 -1 26 -18 50 -39 l43
-37 -15 -55 c-23 -92 0 -166 74 -233 50 -45 77 -56 141 -56 53 0 80 10 116 42
l22 20 55 -48 c56 -47 56 -48 56 -104 0 -111 47 -234 125 -325 46 -54 130
-109 182 -120 30 -6 34 -4 44 22 30 78 -30 229 -134 332 -35 35 -71 68 -81 73
-15 8 -16 22 -10 121 14 246 -57 398 -216 458 -54 20 -143 25 -184 9 -38 -14
-32 -6 25 35 l50 37 22 -20 c92 -84 246 -61 322 47 27 38 30 50 29 114 -1 40
-3 80 -5 90 -3 13 13 30 53 59 l57 40 43 -17 c140 -56 343 -11 454 101 81 81
78 119 -13 145 -87 24 -234 -17 -344 -96 l-48 -34 -68 28 c-222 95 -370 86
-477 -29 -58 -62 -86 -119 -94 -194 l-7 -61 -19 69 c-14 52 -16 71 -7 74 27 9
71 55 90 95 24 49 28 128 9 188 -25 85 -123 158 -193 145 l-31 -6 -18 73 -17
73 35 58 c58 97 71 146 71 276 -1 128 -19 195 -73 259 l-28 33 -31 -26z m81
-132 c22 -22 20 -102 -4 -167 -23 -61 -75 -147 -89 -147 -27 0 -32 167 -6 240
17 47 50 90 71 90 7 0 20 -7 28 -16z m-63 -564 l16 -58 -35 -27 c-98 -79 -93
-248 9 -301 17 -8 38 -13 47 -11 13 3 11 6 -10 15 -53 22 -81 98 -55 148 22
43 65 81 72 63 20 -53 73 -285 67 -291 -15 -15 -98 -20 -141 -8 -56 15 -125
79 -147 136 -23 62 -15 153 21 224 31 63 124 184 134 175 3 -4 13 -33 22 -65z
m155 -179 c78 -48 87 -190 16 -254 -20 -19 -21 -18 -31 20 -6 21 -24 86 -40
146 l-29 107 26 0 c15 0 41 -9 58 -19z m-1212 -95 c43 -18 109 -78 147 -132
16 -24 29 -45 29 -48 0 -3 -20 -6 -44 -6 -52 0 -175 58 -206 97 -60 77 -18
127 74 89z m2232 -51 c30 -30 21 -56 -28 -81 -43 -22 -176 -15 -238 13 l-45
19 41 27 c55 35 95 45 177 46 60 1 71 -2 93 -24z m-543 -74 c42 -18 77 -36 77
-40 0 -4 -21 -22 -47 -40 l-46 -33 -51 26 c-93 47 -183 30 -238 -44 -22 -30
-36 -120 -19 -120 6 0 11 11 11 25 0 13 14 40 31 60 27 30 37 35 74 35 31 0
52 -7 71 -23 l27 -23 -112 -78 c-61 -42 -118 -79 -125 -82 -20 -8 -56 64 -63
125 -11 93 38 184 121 226 73 37 178 32 289 -14z m-904 10 c43 -23 56 -36 71
-75 l11 -29 -141 6 c-78 3 -144 8 -147 11 -11 11 33 69 67 87 44 24 91 24 139
0z m416 -157 l14 -49 -21 28 c-11 15 -34 35 -52 44 l-31 17 35 6 c19 3 36 5
37 5 2 -1 9 -24 18 -51z m-732 36 c4 0 7 -7 7 -15 0 -32 42 -96 79 -120 73
-49 157 -42 206 16 35 42 31 56 -6 25 -62 -53 -160 -18 -175 61 l-6 33 113 -6
c63 -3 129 -7 148 -10 33 -5 33 -6 29 -48 -10 -82 -67 -164 -135 -192 -48 -21
-130 -17 -180 7 -51 24 -130 108 -172 183 -44 75 -42 79 27 73 31 -4 60 -6 65
-7z m481 -39 c-18 -11 -39 -30 -49 -43 -12 -16 -16 -18 -11 -5 3 10 6 30 6 43
0 22 4 24 43 24 l42 0 -31 -19z m174 -5 c39 -20 61 -48 68 -87 6 -33 6 -33
-17 11 -13 25 -39 55 -58 67 -38 26 -34 30 7 9z m-78 -16 c0 -5 -9 -10 -21
-10 -26 0 -57 -16 -93 -49 -23 -20 -26 -22 -18 -6 12 24 51 60 72 68 25 9 60
8 60 -3z m557 -103 c-14 -103 -129 -168 -217 -122 -17 9 -30 19 -30 23 1 4 54
43 118 88 128 87 139 88 129 11z m-667 -13 c-13 -32 -13 -86 0 -118 13 -35 4
-33 -15 4 -19 36 -19 61 -1 105 17 40 30 48 16 9z m283 -87 c-10 -17 -34 -40
-53 -51 l-35 -20 33 31 c35 34 61 86 64 130 1 16 3 10 5 -15 3 -29 -2 -53 -14
-75z m69 -4 c-9 -7 -25 -18 -34 -23 -15 -9 -16 -8 -2 17 7 16 14 44 14 63 l0
34 20 -38 c18 -37 18 -40 2 -53z m-381 -69 c13 -16 11 -16 -21 1 -19 10 -36
19 -38 20 -2 2 2 22 9 45 l13 42 11 -46 c6 -25 18 -53 26 -62z m194 -25 c46
-1 48 -1 22 -11 -39 -14 -90 -2 -118 28 l-24 26 35 -21 c22 -13 53 -21 85 -22z
m-309 20 c3 -6 -15 -71 -42 -144 -41 -116 -50 -133 -64 -125 -10 5 -25 25 -34
44 -37 79 -5 174 74 214 50 25 56 26 66 11z m122 -46 c58 -44 86 -97 90 -174
3 -55 0 -77 -18 -113 -37 -78 -125 -139 -247 -170 -97 -25 -96 -26 -69 47 17
45 28 61 40 59 54 -10 153 45 182 100 21 40 21 116 0 156 -18 35 -45 58 -31
26 5 -10 10 -38 13 -62 5 -52 -16 -88 -63 -108 -38 -15 -89 -19 -83 -6 2 5 25
70 53 146 48 133 50 137 75 131 14 -4 40 -18 58 -32z m456 13 c67 -20 110 -58
143 -123 26 -54 28 -66 28 -185 0 -69 -3 -130 -7 -133 -4 -4 -26 9 -50 28
l-43 36 0 95 c0 105 -11 130 -75 174 -39 26 -107 30 -136 6 -18 -15 -18 -15 8
-10 35 8 90 -15 112 -45 17 -25 22 -105 7 -128 -7 -11 -34 8 -120 80 -61 51
-111 98 -111 103 0 21 83 86 128 100 60 19 60 19 116 2z m-251 -58 l-27 -28
-25 22 c-14 13 -29 25 -33 28 -4 3 20 5 52 5 l59 0 -26 -27z m97 -170 c61 -50
110 -94 110 -98 0 -12 -50 -30 -86 -30 -67 0 -125 48 -144 120 -9 33 -4 100 7
100 2 0 53 -41 113 -92z m478 -402 c48 -53 68 -88 86 -158 34 -133 -54 -157
-111 -31 -19 41 -27 78 -31 144 -3 57 -1 89 5 89 6 0 29 -20 51 -44z m-1138
-23 c0 -54 -106 -180 -176 -209 -95 -40 -98 75 -4 144 36 27 149 82 168 82 6
0 12 -8 12 -17z"/>
</g>
</svg>
